C:\Users\menth\Documents\Programmas\PredSimResults\gait9dof18musc\gait9dof18musc_v1.mot
version=1
nRows=10
nColumns=28
inDegrees=yes
endheader
                time	         pelvis_tilt	           pelvis_tx	           pelvis_ty	       hip_flexion_r	        knee_angle_r	       ankle_angle_r	       hip_flexion_l	        knee_angle_l	       ankle_angle_l	hamstrings_r/activation	bifemsh_r/activation	glut_max_r/activation	iliopsoas_r/activation	rect_fem_r/activation	  vasti_r/activation	gastroc_r/activation	 soleus_r/activation	tib_ant_r/activation	hamstrings_l/activation	bifemsh_l/activation	glut_max_l/activation	iliopsoas_l/activation	rect_fem_l/activation	  vasti_l/activation	gastroc_l/activation	 soleus_l/activation	tib_ant_l/activation	
          0.62297433	         -8.68877679	          0.68527177	          0.89693980	        -10.03678943	         -9.40071856	          7.62929603	         34.32237047	         -8.98682745	          8.69187013	          0.04999999	          0.13047190	          0.04999999	          0.46307042	          0.04999999	          0.04999999	          0.44756657	          0.33287561	          0.04999999	          0.19649245	          0.25650919	          0.09645248	          0.07995052	          0.06038289	          0.04999999	          0.08965432	          0.04999999	          0.25041211	
          0.63543382	         -8.63756066	          0.70177574	          0.89583163	         -9.57863590	        -12.22910574	          6.77103384	         33.87995257	        -10.00276564	          8.34120019	          0.04999999	          0.10803711	          0.04999999	          0.38344496	          0.04999999	          0.04999999	          0.38206153	          0.29867545	          0.04999999	          0.17956836	          0.21240216	          0.21188487	          0.06620294	          0.04999999	          0.04999999	          0.07913044	          0.05358831	          0.23908314	
          0.64789331	         -8.57330682	          0.71843030	          0.89511294	         -8.81171257	        -15.57611774	          5.45413984	         33.44678267	        -11.27578570	          7.90877911	          0.08119651	          0.08946002	          0.10635207	          0.31751119	          0.04999999	          0.04999999	          0.31636564	          0.24731788	          0.04999999	          0.16737473	          0.17587938	          0.32981552	          0.05481927	          0.04999999	          0.04999999	          0.06552388	          0.04999999	          0.28786271	
          0.66035279	         -8.53015255	          0.73483408	          0.89505523	         -7.64044446	        -19.43441312	          3.42970684	         33.17946840	        -12.73900249	          7.35696273	          0.07901780	          0.07407727	          0.08806471	          0.26291480	          0.04999999	          0.04999999	          0.26196623	          0.20479131	          0.04999999	          0.15763394	          0.14563673	          0.41075168	          0.04999999	          0.04999999	          0.19562189	          0.05736304	          0.04999999	          0.31223966	
          0.67281228	         -8.50338473	          0.75092604	          0.89569234	         -6.12423923	        -23.65838423	          0.69383540	         32.92461666	        -14.15311798	          6.90935320	          0.07566876	          0.06133960	          0.07292189	          0.21770632	          0.04999999	          0.04999999	          0.21692085	          0.16957722	          0.29034888	          0.15430678	          0.12059434	          0.46997148	          0.04999999	          0.04999999	          0.32192428	          0.04999999	          0.04999999	          0.34038311	
          0.68527177	         -8.49597506	          0.76660651	          0.89666623	         -4.43537144	        -27.95234524	         -1.45811227	         32.51820375	        -15.21893974	          6.58324263	          0.07727829	          0.08544377	          0.06038289	          0.18027148	          0.04999999	          0.04999999	          0.17962108	          0.14041824	          0.24418140	          0.14929507	          0.09985801	          0.47879920	          0.04999999	          0.04999999	          0.37428033	          0.04999999	          0.04999999	          0.36285590	
          0.69773125	         -8.50974172	          0.78182742	          0.89790108	         -2.75864986	        -31.83053710	         -1.80234562	         31.94720583	        -15.91207948	          6.36621859	          0.07957103	          0.12804353	          0.04999999	          0.14927361	          0.04999999	          0.04999999	          0.14873504	          0.11627317	          0.28707731	          0.14527938	          0.08268732	          0.45336332	          0.04999999	          0.04999999	          0.38077318	          0.04999999	          0.04999999	          0.36674233	
          0.71019074	         -8.54012005	          0.79662747	          0.89954169	         -1.14236183	        -35.12729456	         -1.48742405	         31.26175105	        -16.33885695	          6.28028804	          0.08166529	          0.17574740	          0.04999999	          0.13454094	          0.04999999	          0.04999999	          0.12315989	          0.09627987	          0.28382803	          0.14220801	          0.06846914	          0.41604098	          0.04999999	          0.04999999	          0.37057044	          0.04999999	          0.04999999	          0.35721019	
          0.72265023	         -8.58271359	          0.81105592	          0.90159513	          0.40329906	        -37.82647616	         -0.97263233	         30.50406725	        -16.58471530	          6.31026751	          0.07250538	          0.22940168	          0.04999999	          0.13245459	          0.04999999	          0.04999999	          0.11248705	          0.07972444	          0.26271292	          0.14039490	          0.05669580	          0.37878112	          0.04999999	          0.04999999	          0.35104756	          0.04999999	          0.04999999	          0.33830918	
          0.73510971	         -8.63337205	          0.82516975	          0.90398214	          1.88315375	        -39.97619621	         -0.32648859	         29.68908762	        -16.68476209	          6.41819139	          0.06003800	          0.28722477	          0.04999999	          0.13352631	          0.04999999	          0.04999999	          0.10528846	          0.06601574	          0.24345588	          0.13972811	          0.04999999	          0.34611033	          0.04999999	          0.04999999	          0.32701959	          0.04999999	          0.04999999	          0.31893406	
